<?xml version="1.0" standalone="no"?>
<!DOCTYPE svg PUBLIC "-//W3C//DTD SVG 20010904//EN"
 "http://www.w3.org/TR/2001/REC-SVG-20010904/DTD/svg10.dtd">
<svg version="1.0" xmlns="http://www.w3.org/2000/svg"
 width="200.000000pt" height="200.000000pt" viewBox="0 0 200.000000 200.000000"
 preserveAspectRatio="xMidYMid meet">

<g transform="translate(0.000000,200.000000) scale(0.100000,-0.100000)"
fill="#bbb" stroke="none">
<path d="M840 1986 c-478 -88 -816 -464 -837 -932 -9 -187 24 -350 102 -504
175 -348 554 -568 937 -546 96 5 273 40 283 56 3 4 -21 1 -52 -8 -83 -23 -334
-23 -423 1 -421 114 -704 452 -727 868 -26 470 290 882 750 979 127 27 290 27
411 -1 175 -40 369 -155 490 -290 35 -40 43 -45 29 -21 -93 158 -323 322 -533
382 -98 27 -321 36 -430 16z"/>
<path d="M1020 1613 c-229 -66 -219 -62 -226 -90 -10 -39 7 -58 49 -56 l36 2
-24 -52 c-87 -196 -159 -345 -190 -391 -35 -53 -62 -83 -69 -75 -9 11 -58 437
-53 469 9 73 -21 87 -96 45 -25 -14 -81 -36 -126 -49 -98 -29 -113 -40 -109
-80 3 -28 6 -31 38 -30 19 1 49 4 65 8 l30 8 58 -454 c32 -249 62 -462 65
-474 l7 -21 90 25 c50 14 92 27 94 28 2 2 -9 97 -23 211 -14 114 -26 214 -26
221 0 6 9 12 21 12 11 0 33 13 49 28 l28 29 209 -209 c114 -115 220 -216 235
-224 55 -29 179 -6 217 40 8 9 -58 81 -273 295 l-284 283 86 187 c47 102 89
191 94 197 5 7 38 20 74 30 84 22 115 61 78 98 -19 20 -19 20 -124 -11z"/>
<path d="M1494 1590 c-247 -44 -451 -332 -406 -572 24 -127 115 -253 219 -300
70 -32 208 -32 278 0 79 36 122 71 172 136 l46 61 -7 -80 c-19 -224 -43 -329
-98 -439 -39 -78 -114 -156 -188 -195 -33 -18 -60 -36 -60 -40 0 -4 6 -16 14
-26 13 -18 17 -19 53 -6 56 20 144 75 203 128 106 95 197 257 246 438 24 90
27 117 28 280 1 204 -12 281 -65 392 -42 89 -127 173 -203 202 -66 24 -162 33
-232 21z m99 -93 c72 -31 142 -141 173 -276 20 -82 15 -212 -9 -258 -48 -92
-141 -153 -232 -153 -67 0 -113 25 -153 84 -100 150 -104 415 -7 542 51 66
150 93 228 61z"/>
</g>
</svg>
